#!OML:ASF E:\Mandelcareful walks\Project 1\Capture day 1\Session 1\Subject1.ASF
:FULLY-SPECIFIED
:DEGREES
433
root 12.2105 13.1859 -0.295147 231.3 -80.3292 -218.414
lowerback 44.3632 -1.2246 2.02979
upperback 6.0462 -2.39248 -4.26558
thorax -14.3957 -1.571 -4.51681
lowerneck -29.8417 11.8763 4.52603
upperneck 9.85722 16.4612 -12.3547
head 9.297 6.48397 -2.21651
rclavicle -3.72845e-014 -1.22439e-014
rhumerus -12.7083 17.0575 -73.8129
rradius 96.4813
rwrist -9.75768
rhand -18.1408 -7.97707
rfingers 7.12502
rthumb 8.13441 -37.8005
lclavicle -3.72845e-014 -1.22439e-014
lhumerus -5.27848 -34.0892 64.6243
lradius 117.945
lwrist 14.8572
lhand -37.0101 -33.8158
lfingers 7.12502
lthumb -10.0844 -4.07742
rfemur -67.3937 -26.7363 8.61718
rtibia 88.0668
rfoot -24.4744 -11.7947
rtoes -13.0174
lfemur -62.745 21.3583 -14.6779
ltibia 86.3538
lfoot -26.0428 9.38892
ltoes -19.1765
434
root 12.1986 13.2046 -0.286177 229.07 -80.1178 -216.084
lowerback 44.2853 -1.1464 1.60361
upperback 5.87285 -2.44447 -4.05018
thorax -14.5536 -1.57123 -4.03081
lowerneck -30.9453 9.30764 2.52929
upperneck 10.5948 13.1966 -9.44078
head 9.05334 5.14534 -1.52005
rclavicle -1.72446e-014 -6.91771e-014
rhumerus -12.8497 17.7458 -74.2136
rradius 95.9184
rwrist -9.43615
rhand -17.1042 -8.48537
rfingers 7.12502
rthumb 9.13477 -38.2675
lclavicle -1.72446e-014 -6.91771e-014
lhumerus -6.16388 -34.6547 65.2574
lradius 117.113
lwrist 15.1768
lhand -36.3046 -31.989
lfingers 7.12502
lthumb -9.40373 -2.21879
rfemur -67.4236 -26.3766 8.83307
rtibia 87.7733
rfoot -24.3596 -11.6976
rtoes -12.5206
lfemur -62.6212 21.6121 -14.5135
ltibia 86.2496
lfoot -26.1059 9.50594
ltoes -19.2145
435
root 12.1904 13.2194 -0.274396 227.48 -79.7551 -214.408
lowerback 44.2102 -1.03242 1.05862
upperback 5.7258 -2.51541 -3.85895
thorax -14.6792 -1.57362 -3.50037
lowerneck -31.9 6.609 0.446588
upperneck 11.2024 9.83943 -6.50066
head 8.90706 3.78656 -0.762754
rclavicle -1.00386e-014 -7.1811e-014
rhumerus -12.7891 18.3968 -74.6648
rradius 95.0599
rwrist -9.09499
rhand -16.911 -8.87347
rfingers 7.12502
rthumb 9.32123 -38.6474
lclavicle -1.00386e-014 -7.1811e-014
lhumerus -7.52295 -35.3735 66.775
lradius 116.2
lwrist 14.9597
lhand -35.0867 -30.7026
lfingers 7.12502
lthumb -8.22844 -0.882878
rfemur -67.5238 -26.0571 8.87239
rtibia 87.51
rfoot -24.199 -11.5633
rtoes -11.8362
lfemur -62.5205 21.8557 -14.5448
ltibia 86.1707
lfoot -26.1769 9.7106
ltoes -19.3287
436
root 12.1806 13.2437 -0.262316 225.365 -79.5062 -212.425
lowerback 44.3376 -0.9848 0.665365
upperback 5.64576 -2.60248 -3.62767
thorax -14.7874 -1.5911 -2.99396
lowerneck -32.3677 3.97944 -1.476
upperneck 11.448 6.58537 -3.851
head 8.76388 2.48043 -0.0801676
rclavicle 2.0773e-014 1.0635e-014
rhumerus -12.5104 19.0086 -75.2723
rradius 93.799
rwrist -8.70441
rhand -17.1237 -8.45689
rfingers 7.12502
rthumb 9.11598 -38.2399
lclavicle 2.0773e-014 1.0635e-014
lhumerus -8.62964 -36.0238 68.0746
lradius 115.262
lwrist 15.1042
lhand -34.0091 -29.487
lfingers 7.12502
lthumb -7.1883 0.370959
rfemur -67.2425 -25.7589 8.97825
rtibia 87.1606
rfoot -24.0649 -11.4941
rtoes -11.662
lfemur -62.0863 22.0526 -14.3316
ltibia 86.055
lfoot -26.2707 9.90589
ltoes -19.4039
437
root 12.162 13.2723 -0.24883 222.036 -79.4511 -209.376
lowerback 44.6647 -1.07326 0.604246
upperback 5.57677 -2.70296 -3.36362
thorax -14.9515 -1.62992 -2.61452
lowerneck -32.5194 1.45097 -3.24772
upperneck 11.5269 3.446 -1.34459
head 8.68228 1.22779 0.570908
rclavicle 1.51076e-014 2.98177e-015
rhumerus -12.3897 19.6149 -75.7843
rradius 92.6911
rwrist -8.64217
rhand -16.9323 -8.11736
rfingers 7.12502
rthumb 9.30066 -37.8922
lclavicle 1.51076e-014 2.98177e-015
lhumerus -9.66961 -36.747 69.0386
lradius 114.384
lwrist 15.4393
lhand -33.4057 -28.4941
lfingers 7.12502
lthumb -6.60591 1.38282
rfemur -66.5975 -25.4121 9.28554
rtibia 86.7532
rfoot -24.0557 -11.3351
rtoes -11.383
lfemur -61.3544 22.3105 -13.7421
ltibia 85.9121
lfoot -26.3996 9.98333
ltoes -19.4687
438
root 12.1382 13.2995 -0.232492 219.358 -79.3502 -206.974
lowerback 44.9443 -1.23509 0.502515
upperback 5.48601 -2.90865 -3.10423
thorax -15.1305 -1.70924 -2.16716
lowerneck -32.4374 -0.919589 -4.87192
upperneck 11.5891 0.469071 1.11273
head 8.70363 0.0536645 1.21941
rclavicle 1.13307e-014 -3.06128e-014
rhumerus -12.4699 20.3192 -76.1101
rradius 91.8657
rwrist -8.6558
rhand -16.6729 -8.23573
rfingers 7.12502
rthumb 9.55098 -37.9993
lclavicle 1.13307e-014 -3.06128e-014
lhumerus -10.7961 -37.2698 69.85
lradius 113.539
lwrist 15.5402
lhand -32.7368 -27.8385
lfingers 7.12502
lthumb -5.96011 2.05771
rfemur -65.9424 -25.1944 9.45019
rtibia 86.3502
rfoot -24.0229 -11.105
rtoes -11.2617
lfemur -60.6178 22.4395 -13.2797
ltibia 85.744
lfoot -26.5211 10.2078
ltoes -19.8341
439
root 12.1188 13.3228 -0.220086 217.377 -78.979 -205.2
lowerback 45.1178 -1.24607 0.0737718
upperback 5.39985 -3.0903 -2.87159
thorax -15.2572 -1.76263 -1.59275
lowerneck -31.8519 -2.97434 -6.21772
upperneck 11.2483 -2.19859 3.3594
head 8.62233 -0.991301 1.79827
rclavicle -1.05356e-014 -2.14687e-014
rhumerus -12.5396 20.8726 -76.4742
rradius 91.0165
rwrist -8.20956
rhand -16.6114 -8.45476
rfingers 7.12502
rthumb 9.61027 -38.2156
lclavicle -1.05356e-014 -2.14687e-014
lhumerus -11.9105 -37.8619 70.7564
lradius 112.625
lwrist 15.577
lhand -32.0411 -26.9669
lfingers 7.12502
lthumb -5.28844 2.94712
rfemur -65.5589 -24.8725 9.44795
rtibia 85.9826
rfoot -23.8746 -10.9258
rtoes -11.396
lfemur -59.9427 22.6216 -13.0445
ltibia 85.5393
lfoot -26.6591 10.4406
ltoes -20.032
